<?xml version="1.0" standalone="no"?><!DOCTYPE svg PUBLIC "-//W3C//DTD SVG 1.1//EN" "http://www.w3.org/Graphics/SVG/1.1/DTD/svg11.dtd"><svg t="1518142290726" class="icon" style="" viewBox="0 0 1024 1024" version="1.1" xmlns="http://www.w3.org/2000/svg" p-id="14233" xmlns:xlink="http://www.w3.org/1999/xlink" width="25" height="25"><defs><style type="text/css"></style></defs><path d="M882.915556 753.208889c-56.888889-43.235556-218.453333-118.328889-218.453334-118.328889l-104.675555 195.697778-15.928889-45.511111 29.582222-59.164445-56.888889-59.164444-61.44 59.164444 29.582222 59.164445-18.204444 47.786666L364.088889 637.155556s-163.84 72.817778-218.453333 118.328888C88.746667 798.72 63.715556 932.977778 63.715556 932.977778h905.671111c-2.275556-2.275556-20.48-127.431111-86.471111-179.768889m-364.088889-134.257778c131.982222 0 220.728889-177.493333 220.728889-273.066667s0-263.964444-220.728889-263.964444-220.728889 168.391111-220.728889 263.964444 88.746667 273.066667 220.728889 273.066667" fill="#31c27c" p-id="14234"></path></svg>